<?xml version="1.0" standalone="no"?>
<!DOCTYPE svg PUBLIC "-//W3C//DTD SVG 20010904//EN"
 "http://www.w3.org/TR/2001/REC-SVG-20010904/DTD/svg10.dtd">
<svg version="1.0" xmlns="http://www.w3.org/2000/svg"
 width="500.000000pt" height="500.000000pt" viewBox="0 0 500.000000 500.000000"
 preserveAspectRatio="xMidYMid meet">
<metadata>
Created by potrace 1.11, written by Peter Selinger 2001-2013
</metadata>
<g transform="translate(0.000000,500.000000) scale(0.100000,-0.100000)"
fill="#000000" stroke="none">
<path d="M2435 3019 c-93 -7 -120 -16 -105 -34 7 -8 9 -23 6 -33 -9 -29 -136
-153 -149 -145 -5 3 -7 1 -3 -5 8 -14 -83 -104 -97 -95 -6 3 -7 1 -3 -5 9 -15
-82 -105 -96 -96 -7 4 -8 2 -4 -4 4 -7 2 -12 -3 -12 -6 0 -11 8 -11 17 0 15
-2 14 -14 -2 -8 -11 -12 -23 -10 -27 3 -5 -6 -8 -20 -8 -14 0 -26 6 -26 13 0
9 -2 9 -9 -1 -6 -11 -20 -9 -70 8 -35 11 -70 19 -79 16 -10 -3 -32 -8 -49 -11
-62 -10 -88 -14 -143 -25 -30 -6 -64 -13 -75 -15 -11 -2 -103 -7 -205 -10
-102 -4 -203 -8 -225 -10 -22 -2 -82 -6 -134 -10 -87 -6 -269 -28 -316 -39
-11 -2 -23 -5 -27 -5 -17 -2 -57 -50 -86 -103 -32 -60 -42 -104 -28 -127 6
-10 3 -19 -10 -30 -10 -9 -26 -25 -34 -36 -13 -18 -13 -19 0 -9 16 11 85 12
96 1 11 -10 24 -8 24 4 0 5 -4 8 -9 4 -5 -3 -12 -1 -15 3 -3 5 -17 8 -31 7
-29 -4 -29 -6 -10 38 8 19 11 37 8 41 -4 3 -1 6 6 6 7 0 9 4 6 10 -3 6 -1 10
4 10 6 0 10 3 9 8 -3 13 45 102 56 103 6 1 25 3 41 4 17 1 59 5 95 9 108 12
141 15 245 21 55 3 129 8 165 10 649 41 1932 52 2290 20 19 -1 78 -6 130 -10
52 -3 106 -8 120 -10 14 -2 50 -6 80 -9 104 -11 132 -15 275 -41 44 -8 94 -17
110 -19 82 -14 443 -111 439 -118 -3 -5 -10 -6 -15 -3 -5 4 -9 2 -9 -3 0 -5
11 -12 25 -14 14 -3 25 -1 25 5 0 5 6 4 14 -2 9 -8 16 -8 20 -2 4 5 18 8 32 5
24 -4 24 -4 9 20 -31 46 -168 144 -310 221 -212 114 -349 179 -379 179 -19 1
-32 4 -29 9 2 4 -2 7 -9 7 -11 0 -117 40 -183 69 -11 5 -45 19 -75 31 -30 11
-64 25 -75 30 -40 17 -171 62 -195 67 -14 3 -37 18 -51 34 -33 38 -125 58
-374 85 -152 16 -418 23 -530 13z m480 -93 c22 -4 49 -8 60 -10 11 -2 28 -4
39 -5 16 -1 17 -3 5 -18 -13 -15 -12 -15 11 -1 23 15 33 14 130 -9 58 -13 116
-26 130 -29 13 -3 30 -10 37 -16 7 -6 13 -8 13 -4 0 10 185 -60 276 -105 146
-71 160 -128 36 -155 -15 -3 -154 -8 -309 -11 l-283 -6 16 54 c36 119 75 233
86 246 8 10 6 13 -7 13 -10 0 -16 -2 -13 -5 3 -3 -20 -72 -51 -153 l-57 -147
-343 0 c-189 0 -345 3 -347 6 -5 8 61 198 88 254 13 27 14 34 3 21 -8 -11 -36
-76 -63 -144 l-47 -124 -88 5 c-49 3 -95 11 -103 17 -18 16 -18 44 1 60 8 7
15 16 15 21 0 6 -95 -92 -116 -119 -1 -2 -4 1 -7 5 -3 5 44 60 104 122 60 63
109 119 109 124 0 6 3 7 7 4 7 -8 53 39 53 54 0 6 5 7 10 4 6 -4 8 -11 5 -16
-4 -5 -1 -9 5 -9 6 0 8 10 4 25 -3 14 -2 25 2 23 12 -4 55 27 48 34 -7 8 491
2 541 -6z"/>
<path d="M2646 2918 c3 -5 10 -6 15 -3 13 9 11 12 -6 12 -8 0 -12 -4 -9 -9z"/>
<path d="M2423 2913 c9 -2 23 -2 30 0 6 3 -1 5 -18 5 -16 0 -22 -2 -12 -5z"/>
<path d="M2810 2916 c0 -2 7 -7 16 -10 8 -3 12 -2 9 4 -6 10 -25 14 -25 6z"/>
<path d="M2918 2903 c6 -2 18 -2 25 0 6 3 1 5 -13 5 -14 0 -19 -2 -12 -5z"/>
<path d="M2349 2883 c-13 -16 -12 -17 4 -4 16 13 21 21 13 21 -2 0 -10 -8 -17
-17z"/>
<path d="M3218 2843 c7 -3 16 -2 19 1 4 3 -2 6 -13 5 -11 0 -14 -3 -6 -6z"/>
<path d="M2277 2815 c-15 -14 -24 -25 -19 -25 5 0 19 11 32 25 30 32 23 32
-13 0z"/>
<path d="M3390 2800 c8 -5 20 -10 25 -10 6 0 3 5 -5 10 -8 5 -19 10 -25 10 -5
0 -3 -5 5 -10z"/>
<path d="M2215 2760 c-3 -5 -1 -10 4 -10 6 0 11 5 11 10 0 6 -2 10 -4 10 -3 0
-8 -4 -11 -10z"/>
<path d="M3540 2740 c8 -5 20 -10 25 -10 6 0 3 5 -5 10 -8 5 -19 10 -25 10 -5
0 -3 -5 5 -10z"/>
<path d="M2179 2713 l-24 -28 28 24 c25 23 32 31 24 31 -2 0 -14 -12 -28 -27z"/>
<path d="M3605 2710 c3 -4 14 -10 25 -13 11 -3 18 -2 15 3 -3 4 -14 10 -25 13
-11 3 -18 2 -15 -3z"/>
<path d="M3677 2671 c23 -22 39 -28 28 -11 -3 5 -16 15 -28 21 l-22 11 22 -21z"/>
<path d="M3701 2617 c-13 -21 -12 -21 5 -5 10 10 16 20 13 22 -3 3 -11 -5 -18
-17z"/>
<path d="M3566 2592 c-3 -5 1 -9 9 -9 8 0 12 4 9 9 -3 4 -7 8 -9 8 -2 0 -6 -4
-9 -8z"/>
<path d="M3628 2593 c6 -2 18 -2 25 0 6 3 1 5 -13 5 -14 0 -19 -2 -12 -5z"/>
<path d="M3090 2582 c0 -4 10 -9 22 -9 18 -2 20 0 8 7 -18 12 -30 13 -30 2z"/>
<path d="M3181 2581 c-10 -7 -7 -9 12 -8 14 1 23 5 20 10 -6 9 -15 9 -32 -2z"/>
<path d="M3390 2579 c0 -7 89 -3 97 4 2 3 -19 4 -46 4 -28 -1 -51 -4 -51 -8z"/>
<path d="M3238 2573 c7 -3 16 -2 19 1 4 3 -2 6 -13 5 -11 0 -14 -3 -6 -6z"/>
<path d="M3278 2573 c7 -3 16 -2 19 1 4 3 -2 6 -13 5 -11 0 -14 -3 -6 -6z"/>
<path d="M3318 2573 c7 -3 16 -2 19 1 4 3 -2 6 -13 5 -11 0 -14 -3 -6 -6z"/>
<path d="M2274 2945 c-10 -8 -14 -14 -9 -14 6 0 19 6 29 14 11 8 15 15 10 15
-6 0 -19 -7 -30 -15z"/>
<path d="M2203 2898 c-24 -16 -43 -31 -43 -34 0 -3 57 30 89 53 2 2 2 5 0 7
-2 2 -23 -9 -46 -26z"/>
<path d="M2119 2839 c-23 -19 -23 -20 -2 -10 12 6 25 16 28 21 10 16 -1 12
-26 -11z"/>
<path d="M2056 2793 c-6 -14 -5 -15 5 -6 7 7 10 15 7 18 -3 3 -9 -2 -12 -12z"/>
<path d="M2955 2450 c2 -4 -22 -7 -53 -7 -92 -1 -106 -3 -98 -10 4 -4 44 -8
89 -10 45 -1 91 -3 102 -5 11 -2 21 4 23 13 2 12 -6 18 -32 21 -19 2 -33 1
-31 -2z"/>
<path d="M1087 2353 c-2 -1 -21 -5 -43 -8 -21 -2 -57 -12 -79 -22 -47 -20
-129 -83 -120 -92 4 -3 12 1 18 9 30 39 125 86 195 95 168 23 302 -15 375
-107 55 -69 59 -74 40 -42 -70 116 -158 165 -306 168 -43 1 -79 1 -80 -1z"/>
<path d="M3530 2333 c-33 -5 -111 -33 -128 -47 -31 -26 -93 -89 -89 -92 2 -2
26 18 53 44 65 63 127 84 249 86 52 0 95 4 95 9 0 7 -126 7 -180 0z"/>
<path d="M3725 2330 c-3 -5 17 -13 45 -19 73 -16 147 -56 199 -110 28 -29 37
-35 24 -16 -26 38 -58 66 -106 94 -46 28 -155 62 -162 51z"/>
<path d="M4489 2258 c-25 -22 -42 -48 -31 -48 6 0 14 9 17 21 4 12 12 18 21
15 8 -3 14 1 14 9 0 18 -2 18 -21 3z"/>
<path d="M4670 2245 c-5 -27 -7 -95 -2 -90 6 6 32 -14 32 -26 0 -4 -15 -11
-32 -14 -32 -6 -263 -14 -426 -15 -60 0 -81 -3 -76 -12 5 -7 3 -8 -7 -2 -22
13 -37 13 -49 -1 -8 -10 -8 -15 2 -21 18 -12 108 -11 108 1 0 7 3 7 8 0 7 -10
152 -15 152 -5 0 3 31 4 70 4 49 -1 68 2 63 10 -5 8 -2 7 8 -1 18 -14 161 -6
171 11 6 8 8 7 8 -1 0 -15 -36 -53 -50 -53 -16 0 -12 -17 5 -24 20 -7 75 68
75 103 0 26 -57 155 -60 136z"/>
<path d="M312 2183 c-13 -3 -27 -16 -33 -29 -14 -37 -10 -106 6 -128 24 -31
65 -54 88 -48 19 5 19 6 -9 29 l-29 25 32 -4 c18 -3 35 0 37 6 3 7 5 6 5 -1 1
-9 19 -13 56 -13 47 0 54 2 49 18 -5 16 -5 16 5 0 9 -14 26 -16 91 -14 80 2
115 15 88 32 -7 5 -87 9 -178 9 -91 0 -171 4 -178 9 -11 6 -9 13 7 30 20 21
20 24 5 54 -8 18 -16 31 -17 31 -1 -1 -12 -4 -25 -6z m338 -137 c0 -2 -7 -7
-16 -10 -8 -3 -12 -2 -9 4 6 10 25 14 25 6z"/>
<path d="M796 2175 c-3 -8 -1 -15 3 -15 5 0 11 7 15 15 3 8 1 15 -3 15 -5 0
-11 -7 -15 -15z"/>
<path d="M3296 2163 c-6 -14 -5 -15 5 -6 7 7 10 15 7 18 -3 3 -9 -2 -12 -12z"/>
<path d="M580 2166 c0 -2 7 -7 16 -10 8 -3 12 -2 9 4 -6 10 -25 14 -25 6z"/>
<path d="M4010 2140 c0 -5 5 -10 11 -10 5 0 7 5 4 10 -3 6 -8 10 -11 10 -2 0
-4 -4 -4 -10z"/>
</g>
</svg>
